<svg width="18" height="19" viewBox="0 0 18 19" fill="none" xmlns="http://www.w3.org/2000/svg">
<path fill-rule="evenodd" clip-rule="evenodd" d="M13 0.888672H5C2.23858 0.888672 0 3.12725 0 5.88867V13.8887C0 16.6501 2.23858 18.8887 5 18.8887H13C15.7614 18.8887 18 16.6501 18 13.8887V5.88867C18 3.12725 15.7614 0.888672 13 0.888672ZM16.25 13.8887C16.2445 15.6813 14.7926 17.1332 13 17.1387H5C3.20735 17.1332 1.75549 15.6813 1.75 13.8887V5.88867C1.75549 4.09602 3.20735 2.64416 5 2.63867H13C14.7926 2.64416 16.2445 4.09602 16.25 5.88867V13.8887ZM13.75 6.13867C14.3023 6.13867 14.75 5.69095 14.75 5.13867C14.75 4.58639 14.3023 4.13867 13.75 4.13867C13.1977 4.13867 12.75 4.58639 12.75 5.13867C12.75 5.69095 13.1977 6.13867 13.75 6.13867ZM9 5.38867C6.51472 5.38867 4.5 7.40339 4.5 9.88867C4.5 12.374 6.51472 14.3887 9 14.3887C11.4853 14.3887 13.5 12.374 13.5 9.88867C13.5027 8.69437 13.0294 7.54824 12.1849 6.70375C11.3404 5.85926 10.1943 5.38601 9 5.38867ZM6.25 9.88867C6.25 11.4075 7.4812 12.6387 9 12.6387C10.5188 12.6387 11.75 11.4075 11.75 9.88867C11.75 8.36987 10.5188 7.13867 9 7.13867C7.4812 7.13867 6.25 8.36987 6.25 9.88867Z" fill="#111111"/>
</svg>
