<svg width="18" height="19" viewBox="0 0 18 19" fill="none" xmlns="http://www.w3.org/2000/svg">
<path fill-rule="evenodd" clip-rule="evenodd" d="M2 0.888672H16C17.1046 0.888672 18 1.7841 18 2.88867V16.8887C18 17.9933 17.1046 18.8887 16 18.8887H2C0.89543 18.8887 0 17.9933 0 16.8887V2.88867C0 1.7841 0.89543 0.888672 2 0.888672ZM5 15.8887C5.27614 15.8887 5.5 15.6648 5.5 15.3887V8.38867C5.5 8.11257 5.27614 7.88867 5 7.88867H3.5C3.22386 7.88867 3 8.11257 3 8.38867V15.3887C3 15.6648 3.22386 15.8887 3.5 15.8887H5ZM4.25 6.88867C3.42157 6.88867 2.75 6.2171 2.75 5.38867C2.75 4.56024 3.42157 3.88867 4.25 3.88867C5.07843 3.88867 5.75 4.56024 5.75 5.38867C5.75 6.2171 5.07843 6.88867 4.25 6.88867ZM14.5 15.8887C14.7761 15.8887 15 15.6648 15 15.3887V10.7887C15.0325 9.19947 13.8576 7.84319 12.28 7.64867C11.177 7.54792 10.1083 8.06307 9.5 8.98867V8.38867C9.5 8.11257 9.2761 7.88867 9 7.88867H7.5C7.2239 7.88867 7 8.11257 7 8.38867V15.3887C7 15.6648 7.2239 15.8887 7.5 15.8887H9C9.2761 15.8887 9.5 15.6648 9.5 15.3887V11.6387C9.5 10.8103 10.1716 10.1387 11 10.1387C11.8284 10.1387 12.5 10.8103 12.5 11.6387V15.3887C12.5 15.6648 12.7239 15.8887 13 15.8887H14.5Z" fill="#111111"/>
</svg>
