<svg width="21" height="21" viewBox="0 0 24 24" fill="#1e2939" xmlns="http://www.w3.org/2000/svg">
  <path d="M17.472 14.291c-.267-.134-1.586-.781-1.833-.87-.247-.089-.428-.134-.61.133-.182.267-.701.87-.868 1.048-.16.178-.32.2-.587.067-.267-.133-1.128-.415-2.148-1.322a8.578 8.578 0 0 1-1.587-1.953c-.16-.267-.016-.412.12-.545.123-.123.267-.32.4-.48.134-.16.178-.267.267-.445.089-.178.045-.334-.022-.467-.067-.134-.61-1.469-.835-2.007-.222-.534-.445-.462-.61-.472a3.37 3.37 0 0 0-.533-.022c-.178 0-.467.067-.713.334s-.94.92-.94 2.24c0 1.321.94 2.597 1.067 2.774.133.178 1.86 2.986 4.51 4.135 2.65 1.148 2.65.766 3.127.721.48-.045 1.586-.647 1.81-1.273.222-.625.222-1.16.156-1.273-.067-.111-.222-.156-.49-.29z"/>
  <path fill-rule="evenodd" clip-rule="evenodd" d="M12.004 2C6.48 2 2 6.48 2 12c0 1.988.534 3.876 1.556 5.522L2 22l4.65-1.522A9.97 9.97 0 0 0 12.005 22c5.52 0 10-4.48 10-10s-4.48-10-10-10zm0 18c-1.705 0-3.387-.453-4.85-1.308l-.345-.204-2.757.902.91-2.645-.222-.356A7.916 7.916 0 0 1 4 12c0-4.416 3.588-8 8.005-8 4.416 0 8.005 3.584 8.005 8s-3.589 8-8.005 8z"/>
</svg>
