<svg width="37" height="40" viewBox="0 0 37 40" fill="none" xmlns="http://www.w3.org/2000/svg">
<path fill-rule="evenodd" clip-rule="evenodd" d="M35.7933 10.24L35.5133 9.74C35.1521 9.13538 34.6427 8.63286 34.0333 8.28L20.6133 0.54C20.0057 0.1875 19.3159 0.00124 18.6133 0H18.0333C17.3307 0.00124 16.6409 0.1875 16.0333 0.54L2.61331 8.3C2.00725 8.65052 1.50383 9.15394 1.15331 9.76L0.873313 10.26C0.520813 10.8677 0.334553 11.5575 0.333313 12.26V27.76C0.334553 28.4626 0.520813 29.1524 0.873313 29.76L1.15331 30.26C1.51289 30.859 2.01429 31.3604 2.61331 31.72L16.0533 39.46C16.6579 39.8198 17.3497 40.0066 18.0533 40H18.6133C19.3159 39.9988 20.0057 39.8126 20.6133 39.46L34.0333 31.7C34.6453 31.3574 35.1507 30.852 35.4933 30.24L35.7933 29.74C36.1415 29.1306 36.3275 28.442 36.3333 27.74V12.24C36.3321 11.5375 36.1459 10.8477 35.7933 10.24ZM18.0333 4H18.6133L30.3333 10.76L18.3333 17.68L6.33331 10.76L18.0333 4ZM20.3333 35L32.0333 28.24L32.3333 27.74V14.22L20.3333 21.16V35Z" fill="#111111"/>
</svg>
