<svg width="24" height="24" viewBox="0 0 24 24" fill="none" xmlns="http://www.w3.org/2000/svg">
  <path fill-rule="evenodd" clip-rule="evenodd" d="M20.52 3.48C18.45 1.41 15.52 0 12.35 0 5.53 0 0 5.47 0 12.22c0 2.15.57 4.24 1.66 6.07L0 24l6.01-1.56c1.74.95 3.7 1.45 5.64 1.45h.01c6.82 0 12.35-5.47 12.35-12.22 0-3.23-1.26-6.27-3.49-8.44zM12.35 22.04h-.01c-1.74 0-3.45-.45-4.94-1.32l-.35-.21-3.57.93.95-3.44-.23-.35c-1-1.56-1.52-3.38-1.52-5.23 0-5.62 4.63-10.19 10.31-10.19 2.72 0 5.27 1.04 7.18 2.93 1.9 1.89 2.94 4.4 2.94 7.06 0 5.63-4.63 10.19-10.31 10.19zm5.54-7.63c-.3-.15-1.77-.87-2.04-.96-.27-.1-.47-.15-.66.15-.2.3-.75.96-.93 1.15-.17.2-.34.22-.63.07-.3-.15-1.25-.46-2.38-1.47-.88-.78-1.47-1.73-1.64-2.02-.17-.3-.02-.46.13-.6.14-.14.3-.34.45-.5.05-.06.1-.12.15-.17.1-.12.17-.22.25-.37.07-.15.03-.27-.02-.37-.05-.1-.66-1.6-.91-2.2-.24-.58-.48-.5-.66-.51-.17-.01-.36-.01-.55-.01-.2 0-.52.07-.8.37-.27.3-1.06 1.03-1.06 2.51s1.08 2.92 1.23 3.12c.15.2 2.13 3.27 5.17 4.58.72.3 1.28.48 1.72.61.72.23 1.37.2 1.88.12.57-.09 1.77-.72 2.02-1.42.25-.7.25-1.3.18-1.42-.07-.12-.25-.2-.55-.35z" fill="#20B957"/>
</svg>